<?xml version="1.0" encoding="UTF-8" standalone="no"?><!DOCTYPE svg PUBLIC "-//W3C//DTD SVG 1.1//EN" "http://www.w3.org/Graphics/SVG/1.1/DTD/svg11.dtd"><svg width="100%" height="100%" viewBox="0 0 1024 1024" version="1.1" xmlns="http://www.w3.org/2000/svg" xmlns:xlink="http://www.w3.org/1999/xlink" xml:space="preserve" xmlns:serif="http://www.serif.com/" style="fill-rule:evenodd;clip-rule:evenodd;stroke-linejoin:round;stroke-miterlimit:2;"><path d="M276.048,250.9c28.172,0 54.842,-15.228 72.595,-41.45l10.163,-15.011c17.753,-26.223 44.423,-41.451 72.595,-41.451l161.198,0c28.172,0 54.842,15.228 72.595,41.451l10.163,15.011c17.753,26.222 44.423,41.45 72.595,41.45l183.031,0c51.338,0 93.017,41.68 93.017,93.017l-0,434.078c-0,51.338 -41.679,93.017 -93.017,93.017l-837.966,-0c-51.338,-0 -93.017,-41.679 -93.017,-93.017l-0,-434.078c-0,-51.337 41.679,-93.017 93.017,-93.017l183.031,0Zm508.47,74.321c-15.058,0 -27.283,12.225 -27.283,27.283c-0,15.058 12.225,27.283 27.283,27.283c15.057,-0 27.282,-12.225 27.282,-27.283c0,-15.058 -12.225,-27.283 -27.282,-27.283Zm-272.518,-12.049c-133.484,0 -241.855,108.372 -241.855,241.856c-0,133.484 108.371,241.855 241.855,241.855c133.484,0 241.855,-108.371 241.855,-241.855c0,-133.484 -108.371,-241.856 -241.855,-241.856Zm-0,48.507c106.712,-0 193.349,86.637 193.349,193.349c-0,106.712 -86.637,193.349 -193.349,193.349c-106.712,-0 -193.349,-86.637 -193.349,-193.349c0,-106.712 86.637,-193.349 193.349,-193.349Zm-255.062,-165.444l0,24.303l-155.068,-0l-0,-24.303c-0,-13.346 10.818,-24.164 24.163,-24.164l106.742,-0c13.345,-0 24.163,10.818 24.163,24.164Z"/></svg>