<?xml version="1.0" encoding="UTF-8" standalone="no"?><!DOCTYPE svg PUBLIC "-//W3C//DTD SVG 1.1//EN" "http://www.w3.org/Graphics/SVG/1.1/DTD/svg11.dtd"><svg width="100%" height="100%" viewBox="0 0 1024 1024" version="1.1" xmlns="http://www.w3.org/2000/svg" xmlns:xlink="http://www.w3.org/1999/xlink" xml:space="preserve" xmlns:serif="http://www.serif.com/" style="fill-rule:evenodd;clip-rule:evenodd;stroke-linejoin:round;stroke-miterlimit:2;"><path id="face" d="M77.29,462.859c33.179,-0 60.481,27.302 60.481,60.481c0,33.179 -27.302,60.482 -60.481,60.482c-33.179,-0 -60.481,-27.303 -60.481,-60.482c-0,-33.179 27.302,-60.481 60.481,-60.481Zm874.46,-168.844c30.414,-0 55.441,25.027 55.441,55.441c0,30.414 -25.027,55.442 -55.441,55.442c-30.414,-0 -55.441,-25.028 -55.441,-55.442c-0,-30.414 25.027,-55.441 55.441,-55.441Zm-619.934,357.848c-0,-21.798 15.372,-40.321 40.321,-40.321c30.311,0 51.948,37.801 120.963,37.801c152.463,0 152.715,-133.563 209.164,-133.563c24.672,0 42.841,20.859 42.841,47.881c0,35.568 -98.055,166.324 -254.525,166.324c-87.447,0 -158.764,-49.92 -158.764,-78.122Z" style="fill-rule:nonzero;"/></svg>