<?xml version="1.0" encoding="UTF-8" standalone="no"?><!DOCTYPE svg PUBLIC "-//W3C//DTD SVG 1.1//EN" "http://www.w3.org/Graphics/SVG/1.1/DTD/svg11.dtd"><svg width="100%" height="100%" viewBox="0 0 1024 1024" version="1.1" xmlns="http://www.w3.org/2000/svg" xmlns:xlink="http://www.w3.org/1999/xlink" xml:space="preserve" xmlns:serif="http://www.serif.com/" style="fill-rule:evenodd;clip-rule:evenodd;stroke-linejoin:round;stroke-miterlimit:2;"><path d="M512,212c165.575,0 300,134.425 300,300c-0,165.575 -134.425,300 -300,300c-165.575,-0 -300,-134.425 -300,-300c0,-165.575 134.425,-300 300,-300Zm-0,100c-110.383,-0 -200,89.617 -200,200c-0,110.383 89.617,200 200,200c110.383,-0 200,-89.617 200,-200c-0,-110.383 -89.617,-200 -200,-200Z"/><path d="M0,312l0,-112c-0,-53.043 21.071,-103.914 58.579,-141.421c37.507,-37.508 88.378,-58.579 141.421,-58.579l112,0l-0,100l-112,-0c-26.522,-0 -51.957,10.536 -70.711,29.289c-18.753,18.754 -29.289,44.189 -29.289,70.711l-0,112l-100,0Zm712,-312l112,0c53.043,-0 103.914,21.071 141.421,58.579c37.508,37.507 58.579,88.378 58.579,141.421l0,112l-100,0l0,-112c0,-26.522 -10.536,-51.957 -29.289,-70.711c-18.754,-18.753 -44.189,-29.289 -70.711,-29.289l-112,-0l0,-100Zm312,712l0,112c0,53.043 -21.071,103.914 -58.579,141.421c-37.507,37.508 -88.378,58.579 -141.421,58.579l-112,0l0,-100l112,0c26.522,0 51.957,-10.536 70.711,-29.289c18.753,-18.754 29.289,-44.189 29.289,-70.711l0,-112l100,0Zm-712,312l-112,0c-53.043,0 -103.914,-21.071 -141.421,-58.579c-37.508,-37.507 -58.579,-88.378 -58.579,-141.421l-0,-112l100,0l-0,112c-0,26.522 10.536,51.957 29.289,70.711c18.754,18.753 44.189,29.289 70.711,29.289l112,0l0,100Z"/></svg>