<?xml version="1.0" encoding="UTF-8" standalone="no"?><!DOCTYPE svg PUBLIC "-//W3C//DTD SVG 1.1//EN" "http://www.w3.org/Graphics/SVG/1.1/DTD/svg11.dtd"><svg width="100%" height="100%" viewBox="0 0 1024 1024" version="1.1" xmlns="http://www.w3.org/2000/svg" xmlns:xlink="http://www.w3.org/1999/xlink" xml:space="preserve" xmlns:serif="http://www.serif.com/" style="fill-rule:evenodd;clip-rule:evenodd;stroke-linejoin:round;stroke-miterlimit:2;"><path d="M608.315,0c39.782,0 77.935,15.804 106.066,43.934l265.685,265.685c28.13,28.131 43.934,66.284 43.934,106.066l0,458.315c-0,39.782 -15.804,77.936 -43.934,106.066c-28.13,28.13 -66.284,43.934 -106.066,43.934l-724,-0c-39.782,0 -77.936,-15.804 -106.066,-43.934c-28.13,-28.13 -43.934,-66.284 -43.934,-106.066l0,-724c-0,-39.782 15.804,-77.936 43.934,-106.066c28.13,-28.13 66.284,-43.934 106.066,-43.934l458.315,0Zm-0,75l-458.315,0c-19.891,0 -38.968,7.902 -53.033,21.967c-14.065,14.065 -21.967,33.142 -21.967,53.033l-0,724c-0,19.891 7.902,38.968 21.967,53.033c14.065,14.065 33.142,21.967 53.033,21.967l724,-0c19.891,0 38.968,-7.902 53.033,-21.967c14.065,-14.065 21.967,-33.142 21.967,-53.033l0,-458.315c-0,-19.891 -7.902,-38.967 -21.967,-53.033l-265.685,-265.685c-14.066,-14.065 -33.142,-21.967 -53.033,-21.967Z"/><path d="M949,375l75,75l-300,-0c-39.782,0 -77.936,-15.804 -106.066,-43.934c-28.13,-28.13 -43.934,-66.284 -43.934,-106.066l0,-300l75,74.986l0,225.014c-0,19.891 7.902,38.968 21.967,53.033c14.065,14.065 33.142,21.967 53.033,21.967l225,-0Z"/><path d="M281.712,688.663l-141.712,-0l218.018,-261.622l218.017,261.622l-141.711,-0l-0,195.337l-152.612,0l-0,-195.337Z"/></svg>