<?xml version="1.0" encoding="UTF-8" standalone="no"?><!DOCTYPE svg PUBLIC "-//W3C//DTD SVG 1.1//EN" "http://www.w3.org/Graphics/SVG/1.1/DTD/svg11.dtd"><svg width="100%" height="100%" viewBox="0 0 1024 1024" version="1.1" xmlns="http://www.w3.org/2000/svg" xmlns:xlink="http://www.w3.org/1999/xlink" xml:space="preserve" xmlns:serif="http://www.serif.com/" style="fill-rule:evenodd;clip-rule:evenodd;stroke-linejoin:round;stroke-miterlimit:2;"><path d="M472.125,267.38c-20.488,44.533 -73.277,64.054 -117.809,43.566c-44.533,-20.488 -64.054,-73.277 -43.566,-117.809c52.733,-114.621 202.19,-207.122 418.338,-140.764c212.344,65.191 335.678,236.002 282.632,409.348c-33.016,107.888 -93.582,142.801 -184.3,159.32c-38.226,6.961 -84.524,9.303 -138.896,17.649c-15.971,2.451 -29.045,4.445 -39.544,7.346c-7.199,1.989 -12.89,4.057 -16.804,8.066c-4.026,4.123 -4.678,8.187 -5.914,14.34c-2.193,10.909 -4.461,25.945 -11.782,49.79c-14.386,46.861 -64.111,73.226 -110.972,58.84c-46.542,-14.289 -70.579,-62.51 -59.152,-109.835c23.514,-97.377 27.29,-121.177 84.359,-157.373c29.304,-18.586 68.566,-36.884 132.86,-46.752c52.454,-8.052 97.144,-10.116 134.021,-16.831c21.954,-3.998 38.275,-10.432 46.265,-36.54c12.048,-39.37 -0.384,-75.639 -26.857,-106.021c-31.348,-35.975 -80.941,-64.003 -138.049,-81.535c-102.719,-31.535 -179.77,-9.275 -204.83,45.195Zm30.078,545.141c47.074,14.452 73.559,64.403 59.107,111.477c-14.452,47.073 -64.403,73.558 -111.476,59.106c-47.074,-14.452 -73.559,-64.403 -59.107,-111.476c14.452,-47.074 64.403,-73.559 111.476,-59.107Z"/><path d="M178.855,826.825c47.263,-4.354 89.169,30.481 93.523,77.744c4.355,47.262 -30.481,89.168 -77.743,93.523c-47.262,4.354 -89.169,-30.481 -93.523,-77.744c-4.355,-47.262 30.481,-89.168 77.743,-93.523Zm-178.175,-704.548c-5.923,-47.091 27.5,-90.133 74.592,-96.056c47.092,-5.924 90.134,27.5 96.057,74.592l73.989,588.233c5.924,47.092 -27.5,90.133 -74.592,96.057c-47.092,5.923 -90.133,-27.501 -96.057,-74.592l-73.989,-588.234Z"/></svg>